<svg width="40" height="40" viewBox="0 0 40 40" fill="none" xmlns="http://www.w3.org/2000/svg">
<rect width="40" height="40" rx="10" fill="url(#paint0_linear_12_241)"/>
<path fill-rule="evenodd" clip-rule="evenodd" d="M21.2826 9.92169C21.2826 9.41266 21.6953 9 22.2043 9H23.7255C26.2706 9 28.3339 11.0633 28.3339 13.6085V14.4887H29.5518C29.8313 14.4887 30.0834 14.6572 30.1904 14.9155C30.2974 15.1738 30.2382 15.4711 30.0405 15.6688L27.9014 17.808C27.7718 17.9376 27.5959 18.0104 27.4126 18.0104C27.2293 18.0104 27.0534 17.9376 26.9238 17.808L24.7848 15.6688C24.5871 15.4711 24.528 15.1738 24.6349 14.9155C24.7419 14.6572 24.994 14.4887 25.2736 14.4887H26.4906V13.6085C26.4906 12.0814 25.2525 10.8434 23.7255 10.8434H22.2043C21.6953 10.8434 21.2826 10.4307 21.2826 9.92169ZM10.3353 9.23042C9.59714 9.23042 9 9.82756 9 10.5657V18.9376C9 19.6756 9.59714 20.2728 10.3353 20.2728H16.4892C17.2273 20.2728 17.8245 19.6756 17.8245 18.9376V11.8021C17.8245 11.4486 17.6837 11.0999 17.4202 10.8455L16.1349 9.61162C15.8806 9.36046 15.5419 9.23042 15.2012 9.23042H10.3353ZM22.8483 19.7273C22.1102 19.7273 21.5131 20.3244 21.5131 21.0625V29.4343C21.5131 30.1725 22.1101 30.7697 22.8483 30.7697H29.0023C29.7403 30.7697 30.3375 30.1725 30.3375 29.4343V22.299C30.3375 21.9455 30.1967 21.5967 29.9332 21.3423L28.648 20.1085C28.3936 19.8573 28.0549 19.7273 27.7143 19.7273H22.8483ZM14.0171 25.5112C14.2967 25.5112 14.5487 25.3428 14.6557 25.0845C14.7627 24.8262 14.7036 24.5289 14.5059 24.3312L12.3669 22.192C12.2373 22.0624 12.0614 21.9895 11.8781 21.9895C11.6948 21.9895 11.5189 22.0624 11.3893 22.192L9.25013 24.3312C9.05243 24.5289 8.99329 24.8261 9.10028 25.0845C9.20728 25.3428 9.45934 25.5112 9.73893 25.5112H10.9568V26.3915C10.9568 28.9367 13.0201 31 15.5652 31H17.0864C17.5954 31 18.008 30.5874 18.008 30.0783C18.008 29.5693 17.5954 29.1566 17.0864 29.1566H15.5652C14.0381 29.1566 12.8002 27.9186 12.8002 26.3915V25.5112H14.0171Z" fill="white"/>
<defs>
<linearGradient id="paint0_linear_12_241" x1="0" y1="0" x2="40" y2="40" gradientUnits="userSpaceOnUse">
<stop stop-color="#F75454"/>
<stop offset="1" stop-color="#9F1515"/>
</linearGradient>
</defs>
</svg>
