<svg width="40" height="40" viewBox="0 0 40 40" fill="none" xmlns="http://www.w3.org/2000/svg">
<rect width="40" height="40" rx="10" fill="url(#paint0_linear_12_247)"/>
<path d="M23.21 10.9708L27.3625 15.1233C27.4432 15.2006 27.4923 15.3052 27.5 15.4167V28.7083C27.5 28.8299 27.4517 28.9465 27.3658 29.0324C27.2798 29.1184 27.1632 29.1667 27.0417 29.1667H13.2917C13.1701 29.1667 13.0535 29.1184 12.9676 29.0324C12.8816 28.9465 12.8333 28.8299 12.8333 28.7083V11.2917C12.8333 11.1701 12.8816 11.0535 12.9676 10.9676C13.0535 10.8816 13.1701 10.8333 13.2917 10.8333H22.9167C23.0281 10.8411 23.1327 10.8901 23.21 10.9708ZM23.4575 9H12.8333C12.3471 9 11.8808 9.19315 11.537 9.53697C11.1932 9.88079 11 10.3471 11 10.8333V29.1667C11 29.6529 11.1932 30.1192 11.537 30.463C11.8808 30.8068 12.3471 31 12.8333 31H27.5C27.9862 31 28.4525 30.8068 28.7964 30.463C29.1402 30.1192 29.3333 29.6529 29.3333 29.1667V14.8758C29.3323 14.6354 29.2368 14.4049 29.0675 14.2342L24.0992 9.26583C23.9284 9.09648 23.698 9.00101 23.4575 9Z" fill="white"/>
<path d="M23.8334 19.0833H15.5834C15.3403 19.0833 15.1071 18.9868 14.9352 18.8148C14.7633 18.6429 14.6667 18.4098 14.6667 18.1667C14.6667 17.9236 14.7633 17.6904 14.9352 17.5185C15.1071 17.3466 15.3403 17.25 15.5834 17.25H23.8334C24.0765 17.25 24.3097 17.3466 24.4816 17.5185C24.6535 17.6904 24.7501 17.9236 24.7501 18.1667C24.7501 18.4098 24.6535 18.6429 24.4816 18.8148C24.3097 18.9868 24.0765 19.0833 23.8334 19.0833Z" fill="white"/>
<path d="M23.8334 22.75H15.5834C15.3403 22.75 15.1071 22.6534 14.9352 22.4815C14.7633 22.3096 14.6667 22.0765 14.6667 21.8334C14.6667 21.5902 14.7633 21.3571 14.9352 21.1852C15.1071 21.0133 15.3403 20.9167 15.5834 20.9167H23.8334C24.0765 20.9167 24.3097 21.0133 24.4816 21.1852C24.6535 21.3571 24.7501 21.5902 24.7501 21.8334C24.7501 22.0765 24.6535 22.3096 24.4816 22.4815C24.3097 22.6534 24.0765 22.75 23.8334 22.75Z" fill="white"/>
<path d="M19.7084 26.4166H15.5834C15.3403 26.4166 15.1071 26.3201 14.9352 26.1482C14.7633 25.9763 14.6667 25.7431 14.6667 25.5C14.6667 25.2569 14.7633 25.0237 14.9352 24.8518C15.1071 24.6799 15.3403 24.5833 15.5834 24.5833H19.7084C19.9515 24.5833 20.1847 24.6799 20.3566 24.8518C20.5285 25.0237 20.6251 25.2569 20.6251 25.5C20.6251 25.7431 20.5285 25.9763 20.3566 26.1482C20.1847 26.3201 19.9515 26.4166 19.7084 26.4166Z" fill="white"/>
<defs>
<linearGradient id="paint0_linear_12_247" x1="0" y1="0" x2="40" y2="40" gradientUnits="userSpaceOnUse">
<stop stop-color="#54EDF7"/>
<stop offset="1" stop-color="#394791"/>
</linearGradient>
</defs>
</svg>
