<svg width="40" height="40" viewBox="0 0 40 40" fill="none" xmlns="http://www.w3.org/2000/svg">
<rect width="40" height="40" rx="10" fill="url(#paint0_linear_13_289)"/>
<path d="M29.0675 14.2342L24.0992 9.26583C23.9284 9.09648 23.698 9.00101 23.4575 9H12.8333C12.3471 9 11.8808 9.19315 11.537 9.53697C11.1932 9.88079 11 10.3471 11 10.8333V29.1667C11 29.6529 11.1932 30.1192 11.537 30.463C11.8808 30.8068 12.3471 31 12.8333 31H27.5C27.9862 31 28.4525 30.8068 28.7964 30.463C29.1402 30.1192 29.3333 29.6529 29.3333 29.1667V14.8758C29.3323 14.6354 29.2368 14.4049 29.0675 14.2342ZM27.5 28.7083C27.5 28.8299 27.4517 28.9465 27.3658 29.0324C27.2798 29.1184 27.1632 29.1667 27.0417 29.1667H13.2917C13.1701 29.1667 13.0535 29.1184 12.9676 29.0324C12.8816 28.9465 12.8333 28.8299 12.8333 28.7083V11.2917C12.8333 11.1701 12.8816 11.0535 12.9676 10.9676C13.0535 10.8816 13.1701 10.8333 13.2917 10.8333H22.6875C22.7483 10.8333 22.8066 10.8575 22.8495 10.9005C22.8925 10.9434 22.9167 11.0017 22.9167 11.0625V13.5833C22.9167 14.0696 23.1098 14.5359 23.4536 14.8797C23.7975 15.2235 24.2638 15.4167 24.75 15.4167H27.2708C27.3316 15.4167 27.3899 15.4408 27.4329 15.4838C27.4759 15.5268 27.5 15.5851 27.5 15.6458V28.7083Z" fill="white"/>
<path d="M15.5833 18.625H17.4167C17.4167 18.625 17.875 18.625 17.875 19.0833V20C17.875 20 17.875 20.4583 17.4167 20.4583H15.5833C15.5833 20.4583 15.125 20.4583 15.125 20V19.0833C15.125 19.0833 15.125 18.625 15.5833 18.625Z" fill="white"/>
<path d="M15.5833 21.8333H17.4167C17.4167 21.8333 17.875 21.8333 17.875 22.2916V23.2083C17.875 23.2083 17.875 23.6666 17.4167 23.6666H15.5833C15.5833 23.6666 15.125 23.6666 15.125 23.2083V22.2916C15.125 22.2916 15.125 21.8333 15.5833 21.8333Z" fill="white"/>
<path d="M15.5833 25.0417H17.4167C17.4167 25.0417 17.875 25.0417 17.875 25.5V26.4167C17.875 26.4167 17.875 26.875 17.4167 26.875H15.5833C15.5833 26.875 15.125 26.875 15.125 26.4167V25.5C15.125 25.5 15.125 25.0417 15.5833 25.0417Z" fill="white"/>
<path d="M19.7083 18.625H24.75C24.75 18.625 25.2083 18.625 25.2083 19.0833V20C25.2083 20 25.2083 20.4583 24.75 20.4583H19.7083C19.7083 20.4583 19.25 20.4583 19.25 20V19.0833C19.25 19.0833 19.25 18.625 19.7083 18.625Z" fill="white"/>
<path d="M19.7083 21.8333H24.75C24.75 21.8333 25.2083 21.8333 25.2083 22.2916V23.2083C25.2083 23.2083 25.2083 23.6666 24.75 23.6666H19.7083C19.7083 23.6666 19.25 23.6666 19.25 23.2083V22.2916C19.25 22.2916 19.25 21.8333 19.7083 21.8333Z" fill="white"/>
<path d="M19.7083 25.0417H24.75C24.75 25.0417 25.2083 25.0417 25.2083 25.5V26.4167C25.2083 26.4167 25.2083 26.875 24.75 26.875H19.7083C19.7083 26.875 19.25 26.875 19.25 26.4167V25.5C19.25 25.5 19.25 25.0417 19.7083 25.0417Z" fill="white"/>
<defs>
<linearGradient id="paint0_linear_13_289" x1="0" y1="0" x2="40" y2="40" gradientUnits="userSpaceOnUse">
<stop stop-color="#20D228"/>
<stop offset="1" stop-color="#55BE4C"/>
</linearGradient>
</defs>
</svg>
