<svg width="40" height="40" viewBox="0 0 40 40" fill="none" xmlns="http://www.w3.org/2000/svg">
<rect width="40" height="40" rx="10" fill="url(#paint0_linear_13_292)"/>
<path fill-rule="evenodd" clip-rule="evenodd" d="M26.6634 9C27.0037 9 27.2965 9.24088 27.3621 9.57486C27.696 11.2762 29.0324 12.6221 30.6704 12.9514C31.0029 13.0182 31.2421 13.3102 31.2421 13.6494C31.2421 13.9885 31.0029 14.2805 30.6704 14.3474C29.0318 14.6768 27.6955 16.0208 27.3617 17.7216C27.2961 18.0556 27.0034 18.2964 26.663 18.2964C26.3227 18.2964 26.0299 18.0556 25.9643 17.7216C25.6306 16.0207 24.2945 14.6768 22.656 14.3474C22.3236 14.2805 22.0845 13.9885 22.0845 13.6494C22.0845 13.3102 22.3236 13.0182 22.656 12.9514C24.2941 12.6221 25.6309 11.2761 25.9647 9.57486C26.0303 9.24088 26.3231 9 26.6634 9ZM20.4232 13.6494C20.4232 13.4588 20.4458 13.2727 20.4888 13.0939H11.0165C9.90281 13.0939 9 13.9967 9 15.1103V28.9835C9 30.0972 9.9028 31 11.0165 31H24.8896C26.0034 31 26.9061 30.0972 26.9061 28.9835V19.9454C26.826 19.9536 26.745 19.9577 26.663 19.9577C25.5285 19.9577 24.5527 19.1548 24.3342 18.0416C24.1269 16.9853 23.2931 16.17 22.3286 15.9761C21.2204 15.7533 20.4232 14.7798 20.4232 13.6494ZM23.0338 24.2623L25.0075 26.6453V28.9835C25.0075 29.0486 24.9548 29.1014 24.8896 29.1014H11.0165C10.9514 29.1014 10.8986 29.0486 10.8986 28.9835V23.758L13.1396 20.779C13.1447 20.7721 13.1501 20.7654 13.1556 20.7588C13.2675 20.6257 13.3919 20.5046 13.5284 20.3959C13.533 20.3922 13.5376 20.3887 13.5424 20.3852C14.423 19.7358 15.6698 19.9181 16.3349 20.7728L16.3363 20.7746L19.3679 24.7096L20.0339 24.0614L20.0412 24.0542C20.0861 24.0104 20.1614 23.937 20.2564 23.8732C21.1343 23.2343 22.3701 23.4162 23.0338 24.2623Z" fill="white"/>
<defs>
<linearGradient id="paint0_linear_13_292" x1="0" y1="0" x2="40" y2="40" gradientUnits="userSpaceOnUse">
<stop stop-color="#E43DE8"/>
<stop offset="1" stop-color="#8B309A"/>
</linearGradient>
</defs>
</svg>
