<svg width="40" height="40" viewBox="0 0 40 40" fill="none" xmlns="http://www.w3.org/2000/svg">
<rect width="40" height="40" rx="10" fill="url(#paint0_linear_13_295)"/>
<path d="M27.4083 12.6667C27.3048 12.6455 27.2118 12.5893 27.1449 12.5074C27.0781 12.4256 27.0416 12.3232 27.0417 12.2175V10.8333C27.0417 10.3471 26.8485 9.88079 26.5047 9.53697C26.1609 9.19315 25.6946 9 25.2083 9H13.75C13.0207 9 12.3212 9.28973 11.8055 9.80546C11.2897 10.3212 11 11.0207 11 11.75V28.25C11 28.9793 11.2897 29.6788 11.8055 30.1945C12.3212 30.7103 13.0207 31 13.75 31H27.0417C27.5279 31 27.9942 30.8068 28.338 30.463C28.6818 30.1192 28.875 29.6529 28.875 29.1667V14.5C28.8836 14.0711 28.7416 13.6527 28.4736 13.3178C28.2056 12.9828 27.8287 12.7524 27.4083 12.6667ZM24.9792 23.2083C24.9792 23.6616 24.8448 24.1047 24.593 24.4815C24.3411 24.8584 23.9832 25.1521 23.5645 25.3256C23.1457 25.499 22.685 25.5444 22.2404 25.456C21.7959 25.3675 21.3875 25.1493 21.067 24.8288C20.7466 24.5083 20.5283 24.1 20.4399 23.6554C20.3514 23.2109 20.3968 22.7501 20.5703 22.3314C20.7437 21.9126 21.0375 21.5547 21.4143 21.3029C21.7912 21.0511 22.2343 20.9167 22.6875 20.9167C22.8155 20.9032 22.9445 20.9032 23.0725 20.9167C23.1379 20.9265 23.2048 20.9217 23.2681 20.9027C23.3315 20.8837 23.3899 20.8509 23.4392 20.8067C23.4924 20.7659 23.5351 20.713 23.5638 20.6525C23.5925 20.5919 23.6063 20.5253 23.6042 20.4583V18.1667C23.606 18.1331 23.5995 18.0995 23.5851 18.0691C23.5707 18.0387 23.5489 18.0123 23.5217 17.9925C23.4958 17.9697 23.4647 17.9536 23.4311 17.9456C23.3976 17.9376 23.3626 17.938 23.3292 17.9467L18.7458 18.9275C18.694 18.9362 18.6471 18.9632 18.6135 19.0036C18.5798 19.0439 18.5618 19.095 18.5625 19.1475V25.0417C18.5625 25.4949 18.4281 25.938 18.1763 26.3148C17.9245 26.6917 17.5666 26.9854 17.1478 27.1589C16.7291 27.3323 16.2683 27.3777 15.8238 27.2893C15.3792 27.2009 14.9709 26.9826 14.6504 26.6621C14.3299 26.3416 14.1116 25.9333 14.0232 25.4887C13.9348 25.0442 13.9802 24.5834 14.1536 24.1647C14.3271 23.7459 14.6208 23.388 14.9977 23.1362C15.3745 22.8844 15.8176 22.75 16.2708 22.75C16.3988 22.7365 16.5279 22.7365 16.6558 22.75C16.7213 22.7598 16.7881 22.755 16.8515 22.736C16.9149 22.717 16.9733 22.6842 17.0225 22.64C17.0709 22.603 17.1107 22.556 17.1391 22.5022C17.1676 22.4484 17.1841 22.3891 17.1875 22.3283V19.1475C17.1876 18.781 17.3132 18.4256 17.5433 18.1405C17.7735 17.8553 18.0943 17.6575 18.4525 17.58L23.0358 16.5992C23.2698 16.5485 23.5122 16.5509 23.7452 16.6062C23.9781 16.6614 24.1958 16.7681 24.3821 16.9185C24.5685 17.0688 24.7188 17.2589 24.8221 17.4749C24.9255 17.6909 24.9791 17.9272 24.9792 18.1667V23.2083ZM25.2083 12.4375C25.2083 12.4983 25.1842 12.5566 25.1412 12.5995C25.0982 12.6425 25.0399 12.6667 24.9792 12.6667H13.75C13.5069 12.6667 13.2737 12.5701 13.1018 12.3982C12.9299 12.2263 12.8333 11.9931 12.8333 11.75C12.8333 11.5069 12.9299 11.2737 13.1018 11.1018C13.2737 10.9299 13.5069 10.8333 13.75 10.8333H24.9792C25.0399 10.8333 25.0982 10.8575 25.1412 10.9005C25.1842 10.9434 25.2083 11.0017 25.2083 11.0625V12.4375Z" fill="white"/>
<defs>
<linearGradient id="paint0_linear_13_295" x1="0" y1="0" x2="40" y2="40" gradientUnits="userSpaceOnUse">
<stop stop-color="#F7D354"/>
<stop offset="1" stop-color="#9F6815"/>
</linearGradient>
</defs>
</svg>
