<svg width="40" height="40" viewBox="0 0 40 40" fill="none" xmlns="http://www.w3.org/2000/svg">
<rect width="40" height="40" rx="10" fill="url(#paint0_linear_13_298)"/>
<path d="M18.3094 27.1629C18.2789 27.1218 18.2624 27.0719 18.2624 27.0207C18.2624 26.9694 18.2789 26.9195 18.3094 26.8784C18.7554 26.1759 19.0207 25.3741 19.0819 24.5443C19.1431 23.7145 18.9983 22.8825 18.6602 22.1222C18.3222 21.3619 17.8014 20.697 17.1443 20.1866C16.4872 19.6761 15.7141 19.3361 14.8938 19.1966C14.0735 19.0572 13.2315 19.1227 12.4426 19.3873C11.6537 19.6519 10.9425 20.1074 10.3722 20.7132C9.80192 21.3191 9.39023 22.0565 9.17378 22.8599C8.95734 23.6634 8.94285 24.5078 9.1316 25.3182C9.33822 26.2353 9.7991 27.0756 10.4614 27.7427C11.1237 28.4099 11.9606 28.8769 12.8762 29.0903C13.5346 29.2454 14.2174 29.2668 14.8842 29.1533C15.5511 29.0398 16.1884 28.7936 16.7584 28.4295C16.7975 28.3982 16.846 28.3811 16.8961 28.3811C16.9461 28.3811 16.9947 28.3982 17.0337 28.4295L19.3374 30.7331C19.5093 30.904 19.7419 31 19.9844 31C20.2269 31 20.4595 30.904 20.6314 30.7331C20.7175 30.6478 20.7857 30.5463 20.8323 30.4344C20.8789 30.3226 20.9029 30.2026 20.9029 30.0815C20.9029 29.9603 20.8789 29.8403 20.8323 29.7285C20.7857 29.6167 20.7175 29.5152 20.6314 29.4298L18.3094 27.1629ZM14.0234 27.3556C13.3869 27.3556 12.7648 27.1665 12.2359 26.8123C11.7071 26.4581 11.2954 25.9548 11.0531 25.3662C10.8108 24.7777 10.7488 24.1304 10.875 23.5065C11.0012 22.8827 11.3099 22.3104 11.7619 21.8623C12.2139 21.4141 12.7888 21.1104 13.4138 20.9896C14.0387 20.8687 14.6854 20.9363 15.2719 21.1837C15.8583 21.431 16.3581 21.847 16.7077 22.3789C17.0573 22.9107 17.2411 23.5345 17.2356 24.1709C17.2284 25.0181 16.8867 25.8281 16.2851 26.4246C15.6835 27.021 14.8706 27.3557 14.0234 27.3556Z" fill="white"/>
<path d="M27.3313 15.8834C27.3313 15.6399 27.2346 15.4065 27.0625 15.2344C26.8904 15.0623 26.657 14.9656 26.4136 14.9656H19.9891C19.7457 14.9656 19.5122 15.0623 19.3401 15.2344C19.168 15.4065 19.0713 15.6399 19.0713 15.8834C19.0713 16.1268 19.168 16.3602 19.3401 16.5323C19.5122 16.7044 19.7457 16.8011 19.9891 16.8011H26.4136C26.657 16.8011 26.8904 16.7044 27.0625 16.5323C27.2346 16.3602 27.3313 16.1268 27.3313 15.8834Z" fill="white"/>
<path d="M20.4478 19.0956C20.2044 19.0956 19.971 19.1923 19.7988 19.3645C19.6267 19.5366 19.53 19.77 19.53 20.0134C19.53 20.2568 19.6267 20.4903 19.7988 20.6624C19.971 20.8345 20.2044 20.9312 20.4478 20.9312H24.1189C24.3624 20.9312 24.5958 20.8345 24.7679 20.6624C24.94 20.4903 25.0367 20.2568 25.0367 20.0134C25.0367 19.77 24.94 19.5366 24.7679 19.3645C24.5958 19.1923 24.3624 19.0956 24.1189 19.0956H20.4478Z" fill="white"/>
<path d="M30.4608 11.7534L28.2489 9.54149C27.9063 9.19678 27.4409 9.00205 26.9549 9H16.3177C15.8309 9 15.364 9.19339 15.0198 9.53763C14.6756 9.88186 14.4822 10.3487 14.4822 10.8356V17.5354C14.482 17.5908 14.5027 17.6442 14.5401 17.685C14.5775 17.7258 14.6289 17.751 14.6841 17.7557C15.1359 17.807 15.5816 17.9023 16.0149 18.0402C16.0489 18.0539 16.0857 18.059 16.1222 18.0549C16.1586 18.0508 16.1935 18.0377 16.2235 18.0167C16.2536 17.9958 16.278 17.9676 16.2944 17.9349C16.3109 17.9021 16.3189 17.8657 16.3177 17.8291V11.2945C16.3177 11.1728 16.3661 11.056 16.4522 10.97C16.5382 10.8839 16.6549 10.8356 16.7766 10.8356H26.7621C26.8223 10.8348 26.882 10.8467 26.9373 10.8704C26.9926 10.8941 27.0424 10.9291 27.0833 10.9732L29.029 12.9189C29.0731 12.9599 29.1082 13.0097 29.1319 13.065C29.1556 13.1203 29.1674 13.18 29.1667 13.2402V25.5201C29.1667 25.6418 29.1184 25.7585 29.0323 25.8446C28.9463 25.9307 28.8295 25.979 28.7078 25.979H20.3376C20.2895 25.9797 20.2426 25.995 20.2033 26.0229C20.164 26.0507 20.134 26.0898 20.1174 26.135C20.0273 26.4312 19.9138 26.7197 19.7778 26.9977C19.7543 27.0569 19.747 27.1213 19.7567 27.1842C19.7664 27.2471 19.7927 27.3063 19.8329 27.3557L20.1724 27.6953C20.2013 27.7311 20.2376 27.7603 20.2788 27.7809C20.3199 27.8014 20.3651 27.8129 20.4111 27.8146H29.1667C29.6535 27.8146 30.1204 27.6212 30.4647 27.2769C30.8089 26.9327 31.0023 26.4658 31.0023 25.979V13.0474C31.0002 12.5614 30.8055 12.096 30.4608 11.7534Z" fill="white"/>
<defs>
<linearGradient id="paint0_linear_13_298" x1="0" y1="0" x2="40" y2="40" gradientUnits="userSpaceOnUse">
<stop stop-color="#2D956F"/>
<stop offset="1" stop-color="#26AE8E"/>
</linearGradient>
</defs>
</svg>
